<?xml version="1.0" encoding="utf-8"?>
<!-- Generator: Adobe Illustrator 15.0.0, SVG Export Plug-In . SVG Version: 6.00 Build 0)  -->
<!DOCTYPE svg PUBLIC "-//W3C//DTD SVG 1.1//EN" "http://www.w3.org/Graphics/SVG/1.1/DTD/svg11.dtd">
<svg version="1.1" id="Layer_1" xmlns="http://www.w3.org/2000/svg" xmlns:xlink="http://www.w3.org/1999/xlink" x="0px" y="0px"
	 width="30px" height="30px" viewBox="0 0 30 30" enable-background="new 0 0 30 30" xml:space="preserve">
<metadata><?xpacket begin="﻿" id="W5M0MpCehiHzreSzNTczkc9d"?>
<x:xmpmeta xmlns:x="adobe:ns:meta/" x:xmptk="Adobe XMP Core 5.0-c060 61.134777, 2010/02/12-17:32:00        ">
   <rdf:RDF xmlns:rdf="http://www.w3.org/1999/02/22-rdf-syntax-ns#">
      <rdf:Description rdf:about=""
            xmlns:dc="http://purl.org/dc/elements/1.1/">
         <dc:format>image/svg+xml</dc:format>
         <dc:title>
            <rdf:Alt>
               <rdf:li xml:lang="x-default">Basic RGB</rdf:li>
            </rdf:Alt>
         </dc:title>
      </rdf:Description>
      <rdf:Description rdf:about=""
            xmlns:xmp="http://ns.adobe.com/xap/1.0/"
            xmlns:xmpGImg="http://ns.adobe.com/xap/1.0/g/img/">
         <xmp:CreatorTool>Adobe Illustrator CS5</xmp:CreatorTool>
         <xmp:CreateDate>2023-11-11T12:26:02-03:00</xmp:CreateDate>
         <xmp:ModifyDate>2023-11-11T12:26:02-03:00</xmp:ModifyDate>
         <xmp:MetadataDate>2023-11-11T12:26:02-03:00</xmp:MetadataDate>
         <xmp:Thumbnails>
            <rdf:Alt>
               <rdf:li rdf:parseType="Resource">
                  <xmpGImg:width>256</xmpGImg:width>
                  <xmpGImg:height>212</xmpGImg:height>
                  <xmpGImg:format>JPEG</xmpGImg:format>
                  <xmpGImg:image>/9j/4AAQSkZJRgABAgEASABIAAD/7QAsUGhvdG9zaG9wIDMuMAA4QklNA+0AAAAAABAASAAAAAEA&#xA;AQBIAAAAAQAB/+4ADkFkb2JlAGTAAAAAAf/bAIQABgQEBAUEBgUFBgkGBQYJCwgGBggLDAoKCwoK&#xA;DBAMDAwMDAwQDA4PEA8ODBMTFBQTExwbGxscHx8fHx8fHx8fHwEHBwcNDA0YEBAYGhURFRofHx8f&#xA;Hx8fHx8fHx8fHx8fHx8fHx8fHx8fHx8fHx8fHx8fHx8fHx8fHx8fHx8fHx8f/8AAEQgA1AEAAwER&#xA;AAIRAQMRAf/EAaIAAAAHAQEBAQEAAAAAAAAAAAQFAwIGAQAHCAkKCwEAAgIDAQEBAQEAAAAAAAAA&#xA;AQACAwQFBgcICQoLEAACAQMDAgQCBgcDBAIGAnMBAgMRBAAFIRIxQVEGE2EicYEUMpGhBxWxQiPB&#xA;UtHhMxZi8CRygvElQzRTkqKyY3PCNUQnk6OzNhdUZHTD0uIIJoMJChgZhJRFRqS0VtNVKBry4/PE&#xA;1OT0ZXWFlaW1xdXl9WZ2hpamtsbW5vY3R1dnd4eXp7fH1+f3OEhYaHiImKi4yNjo+Ck5SVlpeYmZ&#xA;qbnJ2en5KjpKWmp6ipqqusra6voRAAICAQIDBQUEBQYECAMDbQEAAhEDBCESMUEFURNhIgZxgZEy&#xA;obHwFMHR4SNCFVJicvEzJDRDghaSUyWiY7LCB3PSNeJEgxdUkwgJChgZJjZFGidkdFU38qOzwygp&#xA;0+PzhJSktMTU5PRldYWVpbXF1eX1RlZmdoaWprbG1ub2R1dnd4eXp7fH1+f3OEhYaHiImKi4yNjo&#xA;+DlJWWl5iZmpucnZ6fkqOkpaanqKmqq6ytrq+v/aAAwDAQACEQMRAD8A9U4q7FXYq7FXYq7FXYq7&#xA;FXYq7FXYq7FXYq7FXYq7FXYq7FXYq7FXYq7FXYq7FXYq7FXYq7FXYq7FXYq7FXYq7FXYq7FXYq7F&#xA;XYq7FXYq7FXYq7FXYq7FXYq7FXYq7FXYq7FXYq7FXYq7FXYq7FXYq7FXYq7FXYq7FXYq7FXYq7FX&#xA;Yq7FXYq7FXYq7FXYq7FXYq7FXYq7FXYq7FXYq7FXYq7FXYq7FXYq7FXYq7FXYq7FXYq7FXYq7FXY&#xA;q7FXYq7FXYq7FXYq7FXYq7FXYq7FXYq7FXYq7FXYq7FXYq7FXYq7FXYq7FXYq7FXYq7FXYq7FXYq&#xA;7FXYq7FXYq7FXYq7FXYq7FXYq7FXYq7FXYq7FXYq7FXYq7FXYq7FXYq7FXYq7FXYq7FXYq7FXYq7&#xA;FXYq7FXYq7FXYq7FXYq7FXYq7FXYq7FXYq7FXYq7FXYq7FXYq7FXYq7FXYq7FXYq7FXYq7FXYq7F&#xA;XYq7FXYq7FXYq7FXYq7FXYq7FXYq7FXYq7FXYq7FXYq7FXYq7FXYq7FXYq7FXYq7FXYq7FXYq7FX&#xA;Yq7FXYq7FXYq7FXYq7FXYq7FXYq7FXYq7FXYq7FXYq7FXYq7FXYq7FXYq7FXYq7FXYq7FXYq7FXY&#xA;q7FXYq7FXYq7FXYq7FXYq7FXYq7FXYq7FXYq7FXYq7FXYq7FXYq7FXYq7FXYq7FXYq7FXYq7FXYq&#xA;7FXYq7FXYq7FXYq7FXYq7FXYq7FXYq7FXYq7FXYq7FXYq7FXYq7FXYq7FXYq7FXYq7FXYq7FXYq7&#xA;FXYq7FXYq7FXYq7FXYq7FXYq7FXYq7FXYq7FXYq7FXYq7FXYq7FXYq7FXYq7FXYq7FXYq7FXYq7F&#xA;XYq7FXYq7FXYq7FXYq7FXYq7FXYq7FXYq7FXYq7FXYq7FXYq7FXYq7FXYq7FXYq7FXYq7FXYq7FX&#xA;Yq7FXYq7FXYq7FXYq7FXYq7FXYq7FXYq7FXYq7FXYq7FXYq7FXYq7FXYq7FXYq7FXYq7FXYq7FXY&#xA;q7FXYq7FXYq7FXYq7FXYq7FXYq7FXYq7FXYq7FXYq7FXYq7FXYq7FXYq7FXYq7FXYq7FXYq7FXYq&#xA;7FXYq7FXYq7FXYq7FXYq7FXYq7FXYq7FXYq7FXYq7FXYq7FXYq7FXYq7FXYq7FXYq7FXYq7FXYq7&#xA;FXYq7FXYq7FXYq7FXYq7FXYq7FXYq7FXYq7FXYq7FXYq7FXYq7FXYq7FXYq7FXYq7FXYq7FXYq7F&#xA;XYq7FXYq7FXYq7FXYq7FXYq7FXYq7FXYq7FXYq7FXYq7FXYq7FXYq7FXYq7FXYq7FXYq7FXYq7FX&#xA;Yq7FXYq7FXYq7FXYq7FXYq7FXYq7FXYq7FXYq7FXYq7FXYq7FXYq7FXYq7FXYq7FXYq7FXYq7FXY&#xA;q7FXYq7FXYq7FXYq7FXYq7FXYq7FXYq7FXYq7FXYq7FXYq7FXYq7FXYq7FXYq7FXYq7FXYq7FXYq&#xA;7FXYq7FXYq7FXYq7FXYq7FXYq7FXYq7FXYq7FXYq7FXYq7FXYq7FXYq7FXYq7FXYq7FXYq7FXYq7&#xA;FXYq7FXYq7FXYq7FXYq7FXYq7FXYq7FXYq7FXYq7FXYq7FXYq7FXYq7FXYq7FXYq7FXYq7FXYq7F&#xA;XYq7FXYq7FXYq7FXYq7FXYq7FXYq7FXYq7FXYq7FXYq7FXYq7FXYq7FXYq7FXYq7FXYq7FXYq7FX&#xA;Yq7FXYq7FXYq7FXYq7FXYq7FXYq7FXYq7FXYq7FXYq7FXYq7FXYq7FXYq7FXYq7FXYq7FXYq7FXY&#xA;q7FXYq7FXYq7FXYq7FXYq7FXYq7FXYq7FXYq7FXYq7FXYq7FXYq7FXYq7FXYq7FXYq7FXYq7FXYq&#xA;7FXYq7FXYq7FXYq7FXYq7FXYq7FXYq7FXYq7FXYq7FXYq7FXYq7FXYq7FXYq7FXYq7FXYq7FXYq7&#xA;FXYq7FXYq7FXYq7FXYq7FXYq7FXYq7FXYq7FXYq7FXYq7FXYq7FXYq7FXYq7FXYq7FXYq7FXYq7F&#xA;XYq7FXYq7FXYq7FXYq7FXYq7FXYq7FXYq7FXYq7FXYq7FXYq7FXYq7FXYq7FXYq7FXYq7FXYq7FX&#xA;Yq7FXYq7FXYq7FXYq7FXYq7FXYq7FXYq7FXYq7FXYq7FXYq7FXYq7FXYq7FXYq7FXYq7FXYq7FXY&#xA;q7FXYq7FXYq7FX//2Q==</xmpGImg:image>
               </rdf:li>
            </rdf:Alt>
         </xmp:Thumbnails>
      </rdf:Description>
      <rdf:Description rdf:about=""
            xmlns:xmpMM="http://ns.adobe.com/xap/1.0/mm/"
            xmlns:stRef="http://ns.adobe.com/xap/1.0/sType/ResourceRef#"
            xmlns:stEvt="http://ns.adobe.com/xap/1.0/sType/ResourceEvent#">
         <xmpMM:OriginalDocumentID>uuid:9E3E5C9A8C81DB118734DB58FDDE4BA7</xmpMM:OriginalDocumentID>
         <xmpMM:DocumentID>xmp.did:A0A7A49FA680EE11B657A3A5B1E309CB</xmpMM:DocumentID>
         <xmpMM:InstanceID>xmp.iid:A0A7A49FA680EE11B657A3A5B1E309CB</xmpMM:InstanceID>
         <xmpMM:RenditionClass>proof:pdf</xmpMM:RenditionClass>
         <xmpMM:DerivedFrom rdf:parseType="Resource">
            <stRef:instanceID>uuid:905b2d53-3bdd-8d4a-91a5-0a235e475abc</stRef:instanceID>
            <stRef:documentID>xmp.did:FF7F11740720681186239FE77607E6FE</stRef:documentID>
            <stRef:originalDocumentID>uuid:9E3E5C9A8C81DB118734DB58FDDE4BA7</stRef:originalDocumentID>
            <stRef:renditionClass>proof:pdf</stRef:renditionClass>
         </xmpMM:DerivedFrom>
         <xmpMM:History>
            <rdf:Seq>
               <rdf:li rdf:parseType="Resource">
                  <stEvt:action>saved</stEvt:action>
                  <stEvt:instanceID>xmp.iid:A0A7A49FA680EE11B657A3A5B1E309CB</stEvt:instanceID>
                  <stEvt:when>2023-11-11T12:26:02-03:00</stEvt:when>
                  <stEvt:softwareAgent>Adobe Illustrator CS5</stEvt:softwareAgent>
                  <stEvt:changed>/</stEvt:changed>
               </rdf:li>
            </rdf:Seq>
         </xmpMM:History>
      </rdf:Description>
      <rdf:Description rdf:about=""
            xmlns:illustrator="http://ns.adobe.com/illustrator/1.0/">
         <illustrator:StartupProfile>Basic RGB</illustrator:StartupProfile>
      </rdf:Description>
      <rdf:Description rdf:about=""
            xmlns:xmpTPg="http://ns.adobe.com/xap/1.0/t/pg/"
            xmlns:stDim="http://ns.adobe.com/xap/1.0/sType/Dimensions#"
            xmlns:xmpG="http://ns.adobe.com/xap/1.0/g/">
         <xmpTPg:NPages>1</xmpTPg:NPages>
         <xmpTPg:HasVisibleTransparency>False</xmpTPg:HasVisibleTransparency>
         <xmpTPg:HasVisibleOverprint>False</xmpTPg:HasVisibleOverprint>
         <xmpTPg:MaxPageSize rdf:parseType="Resource">
            <stDim:w>30.000000</stDim:w>
            <stDim:h>30.000000</stDim:h>
            <stDim:unit>Pixels</stDim:unit>
         </xmpTPg:MaxPageSize>
         <xmpTPg:PlateNames>
            <rdf:Seq>
               <rdf:li>Cyan</rdf:li>
               <rdf:li>Magenta</rdf:li>
               <rdf:li>Yellow</rdf:li>
               <rdf:li>Black</rdf:li>
            </rdf:Seq>
         </xmpTPg:PlateNames>
         <xmpTPg:SwatchGroups>
            <rdf:Seq>
               <rdf:li rdf:parseType="Resource">
                  <xmpG:groupName>Default Swatch Group</xmpG:groupName>
                  <xmpG:groupType>0</xmpG:groupType>
               </rdf:li>
            </rdf:Seq>
         </xmpTPg:SwatchGroups>
      </rdf:Description>
      <rdf:Description rdf:about=""
            xmlns:pdf="http://ns.adobe.com/pdf/1.3/">
         <pdf:Producer>Adobe PDF library 9.90</pdf:Producer>
      </rdf:Description>
   </rdf:RDF>
</x:xmpmeta>
                                                                                                    
                                                                                                    
                                                                                                    
                                                                                                    
                                                                                                    
                                                                                                    
                                                                                                    
                                                                                                    
                                                                                                    
                                                                                                    
                                                                                                    
                                                                                                    
                                                                                                    
                                                                                                    
                                                                                                    
                                                                                                    
                                                                                                    
                                                                                                    
                                                                                                    
                                                                                                    
                           
<?xpacket end="w"?>
	</metadata>
<g>
	<g>
		<g>
			<path fill="#FFFFFF" d="M7.486,21.048c-3.152-1.387-5.406-4.379-5.763-7.816c-0.336-3.239,1.084-6.45,3.63-8.457
				C5.5,4.657,5.652,4.546,5.807,4.438c0.081-0.057,0.163-0.11,0.246-0.164c0.04-0.026,0.079-0.051,0.119-0.076
				c0.027-0.017,0.054-0.033,0.081-0.05C5.884,4.403,5.497,4.627,5.09,4.819c0.326-0.182,0.69-0.346,1.045-0.487
				c0.754-0.3,1.547-0.5,2.352-0.607c1.639-0.218,3.326-0.016,4.871,0.572c2.967,1.131,5.257,3.715,5.982,6.81
				c0.395,1.676,0.305,3.452-0.229,5.086c-0.536,1.646-1.543,3.119-2.848,4.252c-0.195,0.171-0.398,0.33-0.606,0.484
				c-0.116,0.086-0.235,0.168-0.354,0.248c-0.059,0.039-0.116,0.076-0.175,0.113c-0.03,0.02-0.059,0.037-0.088,0.057
				c-0.239,0.152-0.001,0.014,0.712-0.416c-0.344,0.197-0.691,0.392-1.027,0.603c-0.113,0.069,0.147-0.075,0.088-0.043
				c0.168-0.093,0.336-0.189,0.503-0.285c1.007-0.576,1.997-1.146,2.854-1.935c0.635-0.582,1.188-1.252,1.646-1.979
				c0.942-1.498,1.438-3.25,1.441-5.019c0.01-3.215-1.693-6.236-4.365-7.993c-2.75-1.808-6.329-2.093-9.349-0.807
				c-0.408,0.175-0.801,0.381-1.187,0.6c-0.7,0.395-1.411,0.783-2.081,1.233C3.63,5.74,3.037,6.25,2.509,6.822
				C1.443,7.979,0.677,9.397,0.288,10.92c-0.42,1.64-0.376,3.388,0.101,5.01c0.477,1.622,1.407,3.092,2.634,4.25
				c0.814,0.769,1.764,1.387,2.788,1.836c0.022,0.01,0.251-0.138,0.249-0.136c0.199-0.112,0.396-0.226,0.594-0.34
				c0.198-0.114,0.395-0.229,0.591-0.345C7.233,21.202,7.475,21.044,7.486,21.048L7.486,21.048z"/>
		</g>
		<path fill="#FFFFFF" d="M16.001,11.896c-0.021-0.639-0.188-1.275-0.568-1.795c-0.685-0.936-1.908-1.241-3-1.358
			c-1.002-0.106-2.011-0.052-3.016-0.052c-0.909,0-1.817,0-2.727,0c-0.052,0-0.218,0.119-0.249,0.136
			c-0.199,0.112-0.396,0.226-0.594,0.34C5.65,9.28,5.453,9.396,5.257,9.511c-0.016,0.01-0.205,0.148-0.242,0.148
			c0.956,0,1.911,0.007,2.866,0c0,1.747,0,3.495,0,5.242c0,1.188,0,2.376,0,3.564c0,1.916,0,2.042,0,3.958c-0.352,0-0.703,0-1.055,0
			c-0.005,0-0.011,0-0.017,0c-0.052,0-2.368,0.119-2.398,0.136c-0.198,0.112-0.396,0.227-0.594,0.34
			c-0.197,0.115-0.395,0.229-0.591,0.346c-0.016,0.009-0.204,0.146-0.242,0.146c1.642,0,6.795,0,8.438,0c0.005,0,0.011,0,0.017,0
			c0.052,0,0.218-0.119,0.249-0.136c0.199-0.112,0.396-0.226,0.594-0.34c0.198-0.114,0.395-0.229,0.591-0.345
			c0.016-0.01,0.205-0.147,0.242-0.147c-0.732,0-2.826,0-3.559,0c0-1.718,0-1.646,0-3.364c0-0.703,0-1.406,0-2.109
			c0.231-0.008,0.463-0.018,0.694-0.03c0.628-0.039,1.261-0.108,1.867-0.287c0.255-0.075,0.502-0.176,0.737-0.301
			c0.034-0.019,0.068-0.037,0.102-0.056c0.032,0.004,1.543-0.862,1.543-0.891c0.12-0.072,0.238-0.146,0.351-0.23
			c0.416-0.308,0.707-0.741,0.882-1.223C15.971,13.291,16.023,12.574,16.001,11.896z M9.556,16c0-0.204,0-0.408,0-0.611
			c0-1.914,0-3.827,0-5.741c0.65,0.009,1.298,0.047,1.939,0.174c1.118,0.22,2.176,0.774,2.61,1.886
			c0.26,0.667,0.257,1.416,0.187,2.118c-0.059,0.587-0.208,1.178-0.532,1.677c-0.049,0.075-0.104,0.147-0.161,0.218
			c-0.163,0.04-0.327,0.073-0.49,0.103C11.942,16.025,10.736,15.999,9.556,16z"/>
	</g>
	<g>
		<path fill="#FFFFFF" d="M7.881,17.492c0.792,0.002,1.566,0.181,2.273,0.542c0.682,0.348,1.274,0.849,1.804,1.396
			c1.181,1.223,2.091,2.68,3.156,3.998c1.127,1.396,2.452,2.657,4.144,3.33c2.256,0.896,4.768,0.6,7.041-0.064
			c0.688-0.198,1.36-0.438,2.025-0.699c0.292-0.114,0.572-0.318,0.843-0.475c0.197-0.115,0.396-0.229,0.591-0.346
			c0.067-0.04,0.165-0.117,0.242-0.146c-2.467,0.971-5.241,1.707-7.893,1.123c-1.826-0.401-3.349-1.481-4.594-2.844
			c-1.173-1.279-2.103-2.75-3.207-4.084c-0.983-1.188-2.17-2.274-3.725-2.598c-0.337-0.068-0.683-0.102-1.027-0.102
			c-0.052,0-0.219,0.119-0.249,0.137C9.109,16.771,8.911,16.887,8.713,17c-0.197,0.114-0.395,0.229-0.591,0.346
			C8.107,17.354,7.918,17.492,7.881,17.492L7.881,17.492z"/>
	</g>
</g>
</svg>
